<mxfile host="Electron" modified="2023-10-05T08:25:48.551Z" agent="Mozilla/5.0 (Windows NT 10.0; Win64; x64) AppleWebKit/537.36 (KHTML, like Gecko) draw.io/22.0.2 Chrome/114.0.5735.289 Electron/25.8.4 Safari/537.36" etag="vA1M6JfYpm1qAlBj3WIM" version="22.0.2" type="device">
  <diagram name="Page-1" id="c4acf3e9-155e-7222-9cf6-157b1a14988f">
    <mxGraphModel dx="2058" dy="820" grid="1" gridSize="10" guides="1" tooltips="1" connect="1" arrows="1" fold="1" page="1" pageScale="1" pageWidth="850" pageHeight="1100" background="none" math="0" shadow="0">
      <root>
        <mxCell id="0" />
        <mxCell id="1" parent="0" />
        <mxCell id="N9usGpFCycmY1aAUvd-j-1" value="ContBancar" style="swimlane;fontStyle=1;align=center;verticalAlign=top;childLayout=stackLayout;horizontal=1;startSize=26;horizontalStack=0;resizeParent=1;resizeParentMax=0;resizeLast=0;collapsible=1;marginBottom=0;whiteSpace=wrap;html=1;" parent="1" vertex="1">
          <mxGeometry x="550" y="120" width="160" height="164" as="geometry" />
        </mxCell>
        <mxCell id="N9usGpFCycmY1aAUvd-j-2" value="- Id:Guid" style="text;strokeColor=none;fillColor=none;align=left;verticalAlign=top;spacingLeft=4;spacingRight=4;overflow=hidden;rotatable=0;points=[[0,0.5],[1,0.5]];portConstraint=eastwest;whiteSpace=wrap;html=1;" parent="N9usGpFCycmY1aAUvd-j-1" vertex="1">
          <mxGeometry y="26" width="160" height="26" as="geometry" />
        </mxCell>
        <mxCell id="N9usGpFCycmY1aAUvd-j-3" value="" style="line;strokeWidth=1;fillColor=none;align=left;verticalAlign=middle;spacingTop=-1;spacingLeft=3;spacingRight=3;rotatable=0;labelPosition=right;points=[];portConstraint=eastwest;strokeColor=inherit;" parent="N9usGpFCycmY1aAUvd-j-1" vertex="1">
          <mxGeometry y="52" width="160" height="8" as="geometry" />
        </mxCell>
        <mxCell id="N9usGpFCycmY1aAUvd-j-5" value="+ DepuneNumerar(int): Void" style="text;strokeColor=none;fillColor=none;align=left;verticalAlign=top;spacingLeft=4;spacingRight=4;overflow=hidden;rotatable=0;points=[[0,0.5],[1,0.5]];portConstraint=eastwest;whiteSpace=wrap;html=1;" parent="N9usGpFCycmY1aAUvd-j-1" vertex="1">
          <mxGeometry y="60" width="160" height="50" as="geometry" />
        </mxCell>
        <mxCell id="N9usGpFCycmY1aAUvd-j-4" value="+ExtrageNumerar(int):Void" style="text;strokeColor=none;fillColor=none;align=left;verticalAlign=top;spacingLeft=4;spacingRight=4;overflow=hidden;rotatable=0;points=[[0,0.5],[1,0.5]];portConstraint=eastwest;whiteSpace=wrap;html=1;" parent="N9usGpFCycmY1aAUvd-j-1" vertex="1">
          <mxGeometry y="110" width="160" height="54" as="geometry" />
        </mxCell>
        <mxCell id="N9usGpFCycmY1aAUvd-j-7" value="Banca" style="swimlane;fontStyle=1;align=center;verticalAlign=top;childLayout=stackLayout;horizontal=1;startSize=26;horizontalStack=0;resizeParent=1;resizeParentMax=0;resizeLast=0;collapsible=1;marginBottom=0;whiteSpace=wrap;html=1;" parent="1" vertex="1">
          <mxGeometry x="265" y="110" width="160" height="272" as="geometry" />
        </mxCell>
        <mxCell id="N9usGpFCycmY1aAUvd-j-8" value="- Dictionary&amp;lt;Guid,string&amp;gt;" style="text;strokeColor=none;fillColor=none;align=left;verticalAlign=top;spacingLeft=4;spacingRight=4;overflow=hidden;rotatable=0;points=[[0,0.5],[1,0.5]];portConstraint=eastwest;whiteSpace=wrap;html=1;" parent="N9usGpFCycmY1aAUvd-j-7" vertex="1">
          <mxGeometry y="26" width="160" height="26" as="geometry" />
        </mxCell>
        <mxCell id="N9usGpFCycmY1aAUvd-j-9" value="" style="line;strokeWidth=1;fillColor=none;align=left;verticalAlign=middle;spacingTop=-1;spacingLeft=3;spacingRight=3;rotatable=0;labelPosition=right;points=[];portConstraint=eastwest;strokeColor=inherit;" parent="N9usGpFCycmY1aAUvd-j-7" vertex="1">
          <mxGeometry y="52" width="160" height="8" as="geometry" />
        </mxCell>
        <mxCell id="N9usGpFCycmY1aAUvd-j-10" value="+CreazaCont():String" style="text;strokeColor=none;fillColor=none;align=left;verticalAlign=top;spacingLeft=4;spacingRight=4;overflow=hidden;rotatable=0;points=[[0,0.5],[1,0.5]];portConstraint=eastwest;whiteSpace=wrap;html=1;" parent="N9usGpFCycmY1aAUvd-j-7" vertex="1">
          <mxGeometry y="60" width="160" height="50" as="geometry" />
        </mxCell>
        <mxCell id="N9usGpFCycmY1aAUvd-j-17" value="-AdaugaCont():Void(/ ContBancar)" style="text;strokeColor=none;fillColor=none;align=left;verticalAlign=top;spacingLeft=4;spacingRight=4;overflow=hidden;rotatable=0;points=[[0,0.5],[1,0.5]];portConstraint=eastwest;whiteSpace=wrap;html=1;" parent="N9usGpFCycmY1aAUvd-j-7" vertex="1">
          <mxGeometry y="110" width="160" height="54" as="geometry" />
        </mxCell>
        <mxCell id="N9usGpFCycmY1aAUvd-j-18" value="+AdaugaCont():Void(/ ContBancar)" style="text;strokeColor=none;fillColor=none;align=left;verticalAlign=top;spacingLeft=4;spacingRight=4;overflow=hidden;rotatable=0;points=[[0,0.5],[1,0.5]];portConstraint=eastwest;whiteSpace=wrap;html=1;" parent="N9usGpFCycmY1aAUvd-j-7" vertex="1">
          <mxGeometry y="164" width="160" height="54" as="geometry" />
        </mxCell>
        <mxCell id="N9usGpFCycmY1aAUvd-j-11" value="+Plateste()Void" style="text;strokeColor=none;fillColor=none;align=left;verticalAlign=top;spacingLeft=4;spacingRight=4;overflow=hidden;rotatable=0;points=[[0,0.5],[1,0.5]];portConstraint=eastwest;whiteSpace=wrap;html=1;" parent="N9usGpFCycmY1aAUvd-j-7" vertex="1">
          <mxGeometry y="218" width="160" height="54" as="geometry" />
        </mxCell>
        <mxCell id="N9usGpFCycmY1aAUvd-j-19" value="Card" style="swimlane;fontStyle=1;align=center;verticalAlign=top;childLayout=stackLayout;horizontal=1;startSize=26;horizontalStack=0;resizeParent=1;resizeParentMax=0;resizeLast=0;collapsible=1;marginBottom=0;whiteSpace=wrap;html=1;" parent="1" vertex="1">
          <mxGeometry x="520" y="640" width="160" height="192" as="geometry" />
        </mxCell>
        <mxCell id="N9usGpFCycmY1aAUvd-j-21" value="" style="line;strokeWidth=1;fillColor=none;align=left;verticalAlign=middle;spacingTop=-1;spacingLeft=3;spacingRight=3;rotatable=0;labelPosition=right;points=[];portConstraint=eastwest;strokeColor=inherit;" parent="N9usGpFCycmY1aAUvd-j-19" vertex="1">
          <mxGeometry y="26" width="160" height="8" as="geometry" />
        </mxCell>
        <mxCell id="N9usGpFCycmY1aAUvd-j-22" value="IntroduCard():Void" style="text;strokeColor=none;fillColor=none;align=left;verticalAlign=top;spacingLeft=4;spacingRight=4;overflow=hidden;rotatable=0;points=[[0,0.5],[1,0.5]];portConstraint=eastwest;whiteSpace=wrap;html=1;" parent="N9usGpFCycmY1aAUvd-j-19" vertex="1">
          <mxGeometry y="34" width="160" height="50" as="geometry" />
        </mxCell>
        <mxCell id="N9usGpFCycmY1aAUvd-j-29" value="+ExtrageNumerar(int):Void" style="text;strokeColor=none;fillColor=none;align=left;verticalAlign=top;spacingLeft=4;spacingRight=4;overflow=hidden;rotatable=0;points=[[0,0.5],[1,0.5]];portConstraint=eastwest;whiteSpace=wrap;html=1;" parent="N9usGpFCycmY1aAUvd-j-19" vertex="1">
          <mxGeometry y="84" width="160" height="54" as="geometry" />
        </mxCell>
        <mxCell id="N9usGpFCycmY1aAUvd-j-23" value="+GetCardData():String" style="text;strokeColor=none;fillColor=none;align=left;verticalAlign=top;spacingLeft=4;spacingRight=4;overflow=hidden;rotatable=0;points=[[0,0.5],[1,0.5]];portConstraint=eastwest;whiteSpace=wrap;html=1;" parent="N9usGpFCycmY1aAUvd-j-19" vertex="1">
          <mxGeometry y="138" width="160" height="54" as="geometry" />
        </mxCell>
        <mxCell id="N9usGpFCycmY1aAUvd-j-30" value="PoS" style="swimlane;fontStyle=1;align=center;verticalAlign=top;childLayout=stackLayout;horizontal=1;startSize=26;horizontalStack=0;resizeParent=1;resizeParentMax=0;resizeLast=0;collapsible=1;marginBottom=0;whiteSpace=wrap;html=1;" parent="1" vertex="1">
          <mxGeometry x="70" y="690" width="160" height="114" as="geometry" />
        </mxCell>
        <mxCell id="N9usGpFCycmY1aAUvd-j-31" value="- Id:Guid" style="text;strokeColor=none;fillColor=none;align=left;verticalAlign=top;spacingLeft=4;spacingRight=4;overflow=hidden;rotatable=0;points=[[0,0.5],[1,0.5]];portConstraint=eastwest;whiteSpace=wrap;html=1;" parent="N9usGpFCycmY1aAUvd-j-30" vertex="1">
          <mxGeometry y="26" width="160" height="26" as="geometry" />
        </mxCell>
        <mxCell id="N9usGpFCycmY1aAUvd-j-32" value="" style="line;strokeWidth=1;fillColor=none;align=left;verticalAlign=middle;spacingTop=-1;spacingLeft=3;spacingRight=3;rotatable=0;labelPosition=right;points=[];portConstraint=eastwest;strokeColor=inherit;" parent="N9usGpFCycmY1aAUvd-j-30" vertex="1">
          <mxGeometry y="52" width="160" height="8" as="geometry" />
        </mxCell>
        <mxCell id="N9usGpFCycmY1aAUvd-j-34" value="+Plateste(iSuna,Card):Void" style="text;strokeColor=none;fillColor=none;align=left;verticalAlign=top;spacingLeft=4;spacingRight=4;overflow=hidden;rotatable=0;points=[[0,0.5],[1,0.5]];portConstraint=eastwest;whiteSpace=wrap;html=1;" parent="N9usGpFCycmY1aAUvd-j-30" vertex="1">
          <mxGeometry y="60" width="160" height="54" as="geometry" />
        </mxCell>
        <mxCell id="Id6qgjb4JnsOnMEeziKR-1" value="" style="endArrow=diamondThin;endFill=0;endSize=24;html=1;rounded=0;exitX=1;exitY=0.5;exitDx=0;exitDy=0;entryX=0.006;entryY=0.11;entryDx=0;entryDy=0;entryPerimeter=0;" edge="1" parent="1" source="N9usGpFCycmY1aAUvd-j-8" target="N9usGpFCycmY1aAUvd-j-1">
          <mxGeometry width="160" relative="1" as="geometry">
            <mxPoint x="340" y="420" as="sourcePoint" />
            <mxPoint x="500" y="420" as="targetPoint" />
          </mxGeometry>
        </mxCell>
        <mxCell id="Id6qgjb4JnsOnMEeziKR-2" value="" style="endArrow=diamondThin;endFill=0;endSize=24;html=1;rounded=0;exitX=0.506;exitY=1.056;exitDx=0;exitDy=0;exitPerimeter=0;entryX=0.569;entryY=-0.016;entryDx=0;entryDy=0;entryPerimeter=0;" edge="1" parent="1" source="N9usGpFCycmY1aAUvd-j-4" target="N9usGpFCycmY1aAUvd-j-19">
          <mxGeometry width="160" relative="1" as="geometry">
            <mxPoint x="340" y="420" as="sourcePoint" />
            <mxPoint x="500" y="420" as="targetPoint" />
          </mxGeometry>
        </mxCell>
        <mxCell id="Id6qgjb4JnsOnMEeziKR-3" value="Use" style="endArrow=open;endSize=12;dashed=1;html=1;rounded=0;exitX=0.563;exitY=-0.026;exitDx=0;exitDy=0;exitPerimeter=0;entryX=0.5;entryY=1.037;entryDx=0;entryDy=0;entryPerimeter=0;" edge="1" parent="1" source="N9usGpFCycmY1aAUvd-j-30" target="N9usGpFCycmY1aAUvd-j-11">
          <mxGeometry width="160" relative="1" as="geometry">
            <mxPoint x="340" y="420" as="sourcePoint" />
            <mxPoint x="500" y="420" as="targetPoint" />
          </mxGeometry>
        </mxCell>
        <mxCell id="Id6qgjb4JnsOnMEeziKR-4" value="Use" style="endArrow=open;endSize=12;dashed=1;html=1;rounded=0;exitX=1;exitY=0.5;exitDx=0;exitDy=0;entryX=0;entryY=0.222;entryDx=0;entryDy=0;entryPerimeter=0;" edge="1" parent="1" source="N9usGpFCycmY1aAUvd-j-31" target="N9usGpFCycmY1aAUvd-j-29">
          <mxGeometry width="160" relative="1" as="geometry">
            <mxPoint x="310" y="703" as="sourcePoint" />
            <mxPoint x="495" y="400" as="targetPoint" />
          </mxGeometry>
        </mxCell>
      </root>
    </mxGraphModel>
  </diagram>
</mxfile>
